<svg xmlns="http://www.w3.org/2000/svg" width="36" height="36" viewBox="0 0 36 36" fill="none">
  <!-- Open book base -->
  <path d="M4 8C4 8 12 4 18 8C24 4 32 8 32 8V28C32 28 24 24 18 28C12 24 4 28 4 28V8Z" fill="none" stroke="#fff" stroke-width="1.3"/>
  <!-- Book spine -->
  <line x1="18" y1="8" x2="18" y2="28" stroke="#fff" stroke-width="1" opacity="0.3"/>
  <!-- Left page line -->
  <line x1="11" y1="12" x2="11" y2="26" stroke="#fff" stroke-width="0.5" opacity="0.25"/>
  <!-- Right page line -->
  <line x1="25" y1="12" x2="25" y2="26" stroke="#fff" stroke-width="0.5" opacity="0.25"/>
  <!-- Map marker pin on the book -->
  <path d="M18 14C18 14 21 17.5 21 19C21 20.66 19.66 22 18 22C16.34 22 15 20.66 15 19C15 17.5 18 14 18 14Z" fill="#2563eb" opacity="0.9"/>
  <circle cx="18" cy="19" r="1.5" fill="#fff"/>
  <!-- Text lines on pages -->
  <line x1="7" y1="15" x2="15" y2="12.5" stroke="#fff" stroke-width="0.6" opacity="0.2"/>
  <line x1="7" y1="18" x2="15" y2="15.5" stroke="#fff" stroke-width="0.6" opacity="0.2"/>
  <line x1="21" y1="12.5" x2="29" y2="15" stroke="#fff" stroke-width="0.6" opacity="0.2"/>
  <line x1="21" y1="15.5" x2="29" y2="18" stroke="#fff" stroke-width="0.6" opacity="0.2"/>
</svg>
